<?xml version="1.0" encoding="UTF-8" standalone="no"?>
<svg width="900" height="600" xmlns="http://www.w3.org/2000/svg" xmlns:xlink="http://www.w3.org/1999/xlink" version="1.2" baseProfile="tiny">
<g fill="none" stroke="black" stroke-width="1" fill-rule="evenodd" stroke-linecap="square" stroke-linejoin="bevel">
    <g fill="#51abcb" fill-opacity="1" stroke="none" transform="matrix(1.01961,0,0,1.01961,-61.2157,-2.19608)" id="country-af"><path vector-effect="none" fill-rule="nonzero" d="M614.12,227.05 L615.71,239.51 L619.67,240.38 L620.04,242.62 L617.2,244.99 L622.49,249.26 L632.77,245.56 L633.59,241.18 L640.06,237.14 L642.54,227.78 L644.39,225.79 L642.47,222.45 L648.73,218.58 L647.93,217.46 L645.04,217.64 L644.78,220.3 L640.9,220.26 L640.83,216.71 L639.58,215.22 L637.48,217.13 L637.54,218.88 L634.37,220.08 L628.52,219.71 L620.92,227.67 L614.12,227.05 L614.12,227.05" /></g>
    <g fill="#51abcb" fill-opacity="1" stroke="none" transform="matrix(1.01961,0,0,1.01961,-61.2157,-2.19608)" id="country-al"><path vector-effect="none" fill-rule="nonzero" d="M504.02,209.76 L504.02,214.37 L505.34,216.86 L506.29,216.75 L507.92,213.78 L506.97,212.45 L506.6,209.16 L505.34,207.99 L504.02,209.76 L504.02,209.76" /></g>
    <g fill="#51abcb" fill-opacity="1" stroke="none" transform="matrix(1.01961,0,0,1.01961,-61.2157,-2.19608)" id="country-am"><path vector-effect="none" fill-rule="nonzero" d="M569.72,209.89 L574.52,216.15 L573.11,217.8 L569.71,217.21 L565.49,213.43 L565.72,210.95 L569.72,209.89" /></g>
    <g fill="#51abcb" fill-opacity="1" stroke="none" transform="matrix(1.01961,0,0,1.01961,-61.2157,-2.19608)" id="country-ao"><path vector-effect="none" fill-rule="nonzero" d="M488.62,356.71 L492.03,369.44 L491.95,373.46 L486.96,378.82 L486.21,387.53 L505.41,387.7 L511.65,389.96 L516.8,389.29 L513.8,385.53 L513.81,374.79 L519.71,374.54 L519.71,370.35 L514.92,370.15 L513.96,360.23 L511.94,360.26 L510.85,359.28 L509.66,359.34 L508.08,362.4 L502,362.4 L500.59,360.98 L501.01,358.97 L499.35,356.54 L488.62,356.71 L488.62,356.71" /></g>
    <g fill="#51abcb" fill-opacity="1" stroke="none" transform="matrix(1.01961,0,0,1.01961,-61.2157,-2.19608)" id="country-ar"><path vector-effect="none" fill-rule="nonzero" d="M305.47,418.2 L307.41,420.02 L300.04,430.97 L297.45,433.84 L298.35,446.35 L304.04,453.26 L299.26,461.6 L295.64,463.16 L291.5,463.16 L292.66,469.67 L286.19,471.89 L287.74,477.36 L283.86,489.74 L288.65,493.65 L286.06,500.03 L281.66,506.94 L283.99,511.76 L278.3,512.67 L273.64,506.94 L272.86,489.09 L265.62,458.77 L267.81,448.17 L263.15,434.62 L266.25,417.03 L269.1,413.64 L268.4,411.07 L272.06,407.73 L280.22,408.29 L284.78,413.16 L290.05,413.25 L295.45,416.55 L293.86,420.27 L294.24,424.03 L301.89,423.67 L305.47,418.2 L305.47,418.2" /></g>
    <g fill="#51abcb" fill-opacity="1" stroke="none" transform="matrix(1.01961,0,0,1.01961,-61.2157,-2.19608)" id="country-at"><path vector-effect="none" fill-rule="nonzero" d="M480.63,190.12 L479.98,191.47 L480.54,192.43 L482.87,191.95 L484.85,191.95 L487,193.77 L491.57,192.94 L494.93,190.94 L495.79,189.59 L495.66,187.85 L492.64,185.59 L488.59,185.63 L488.25,187.93 L483.99,190.01 L480.63,190.12 L480.63,190.12" /></g>
    <g fill="#51abcb" fill-opacity="1" stroke="none" transform="matrix(1.01961,0,0,1.01961,-61.2157,-2.19608)" id="country-et"><path vector-effect="none" fill-rule="nonzero" d="M549.49,311.76 L556.77,295.56 L564,295.6 L570.41,301.17 L569.96,305.76 L574.93,305.76 L575.44,308.52 L583.48,313.33 L588.44,313.58 L579.01,323.71 L566.06,327.7 L562.85,327.7 L557.13,322.82 L554.87,321.87 L550.49,315.42 L547.6,315.46 L547.26,312.5 L549.49,311.76 L549.49,311.76" />    </g>
    <g fill="#51abcb" fill-opacity="1" stroke="none" transform="matrix(1.01961,0,0,1.01961,-61.2157,-2.19608)" id="country-fi"><path vector-effect="none" fill-rule="nonzero" d="M506.79,116.94 L508.86,117.85 L510.14,120.25 L508.86,121.91 L502.44,128.93 L501.34,132.63 L502.81,137.99 L507.76,141.69 L514.36,138.55 L519.68,137.81 L524.63,129.86 L520.96,121.17 L517.47,112.85 L518.02,107.49 L515.82,107.12 L515.25,103.21 L512.29,98.38 L509.01,100.65 L507.72,105.92 L504.24,103.83 L499.4,102.65 L498.32,103.91 L500.18,105.59 L503.57,105.53 L506.3,109.94 L506.79,116.94 L506.79,116.94" />    </g>
    <g fill="#51abcb" fill-opacity="1" stroke="none" transform="matrix(1.01961,0,0,1.01961,-61.2157,-2.19608)" id="country-fj"><path vector-effect="none" fill-rule="nonzero" d="M948.62,412.29 L947.38,413.95 L947.28,415.82 L948.72,417.28 L948.62,412.29 L948.62,412.29" />    </g>
    <g fill="#51abcb" fill-opacity="1" stroke="none" transform="matrix(1.01961,0,0,1.01961,-61.2157,-2.19608)" id="country-fr"><path vector-effect="none" fill-rule="nonzero" d="M460.4,178.7 L458.19,179.24 L453.77,184.05 L452.44,184.14 L450.67,182.89 L449.52,183.16 L448.64,185.92 L442.18,186.1 L442.36,187.53 L446.78,190.47 L451.91,194.57 L451.82,199.47 L449.08,204.28 L455.01,207.13 L461.03,207.31 L462.89,205.17 L466.69,205.26 L467.75,206.24 L471.55,205.97 L473.5,203.47 L471.02,200.53 L470.84,198.66 L471.37,196.61 L470.13,194.83 L468.01,195.45 L467.74,193.85 L472.43,188.68 L472.43,185.56 L469.33,183.78 L467.74,183.51 L460.4,178.7 L460.4,178.7" />    </g>
    <g fill="#51abcb" fill-opacity="1" stroke="none" transform="matrix(1.01961,0,0,1.01961,-61.2157,-2.19608)" id="country-ga"><path vector-effect="none" fill-rule="nonzero" d="M486.39,332.63 L486.27,335.12 L480.63,335 L477.18,341.67 L485.29,350.54 L487.3,348.86 L487.24,347.12 L485.86,346.48 L485.86,345.26 L488.97,343.29 L491.73,345.38 L494.78,345.44 L494.72,334.95 L489.89,334.72 L489.83,332.52 L486.39,332.63 L486.39,332.63" />    </g>
    <g fill="#51abcb" fill-opacity="1" stroke="none" transform="matrix(1.01961,0,0,1.01961,-61.2157,-2.19608)" id="country-gb"><path vector-effect="none" fill-rule="nonzero" d="M446.12,149.08 L444.29,151.85 L445.02,152.96 L449.24,152.96 L449.24,154.81 L448.14,156.29 L448.87,160.17 L451.25,164.79 L453.08,169.04 L456.01,170.15 L457.29,172.37 L457.11,174.4 L455.28,175.51 L455.1,176.43 L456.38,177.17 L455.28,178.65 L452.71,179.76 L447.76,179.21 L440.05,182.72 L437.48,181.43 L444.82,177.18 L443.9,176.63 L440.05,176.26 L442.43,172.75 L442.8,169.79 L445.92,169.42 L445.37,163.69 L441.7,163.51 L440.6,162.22 L440.78,157.97 L438.58,158.15 L440.78,150.76 L444.82,147.8 L446.12,149.08 L446.12,149.08 M438.42,161.47 L435.12,161.84 L434.94,164.8 L437.14,166.28 L439.52,165.73 L440.44,164.07 L438.42,161.47 L438.42,161.47" />    </g>
    <g fill="#51abcb" fill-opacity="1" stroke="none" transform="matrix(1.01961,0,0,1.01961,-61.2157,-2.19608)" id="country-ge"><path vector-effect="none" fill-rule="nonzero" d="M555.46,204.16 L558.73,208.43 L562.81,210.31 L565.32,210.3 L569.63,209.13 L570.71,207.44 L557.96,202.67 L555.46,204.16 L555.46,204.16" />    </g>
    <g fill="#51abcb" fill-opacity="1" stroke="none" transform="matrix(1.01961,0,0,1.01961,-61.2157,-2.19608)" id="country-gf"><path vector-effect="none" fill-rule="nonzero" d="M302.13,321.8 L307.98,325.45 L304.92,331.53 L303.81,332.93 L300.56,331.06 L300.65,324.51 L302.13,321.8 L302.13,321.8" />    </g>
    <g fill="#51abcb" fill-opacity="1" stroke="none" transform="matrix(1.01961,0,0,1.01961,-61.2157,-2.19608)" id="country-gh"><path vector-effect="none" fill-rule="nonzero" d="M444.34,317.05 L445.46,319.68 L448.38,324.26 L450,324.2 L454.42,321.69 L454.11,307.4 L450.69,306.4 L445.9,306.53 L444.34,317.05 L444.34,317.05" />    </g>
    <g fill="#51abcb" fill-opacity="1" stroke="none" transform="matrix(1.01961,0,0,1.01961,-61.2157,-2.19608)" id="country-gl"><path vector-effect="none" fill-rule="nonzero" d="M321.13,50.07 L319.77,52.24 L322.22,54.69 L321.13,57.14 L324.67,61.76 L329.02,60.4 L334.73,59.86 L341.26,66.93 L345.61,78.62 L342.08,85.96 L346.97,85.14 L349.69,86.77 L349.96,90.31 L343.98,90.58 L347.24,93.84 L351.32,94.66 L342.35,106.62 L341.26,113.96 L343.16,119.94 L341.8,123.48 L344.25,131.09 L348.87,136.26 L350.23,135.99 L353.22,135.17 L353.49,139.52 L355.39,142.24 L358.92,141.97 L361.64,131.91 L369.8,121.85 L382.04,116.96 L389.65,107.44 L393.18,109.07 L400.52,109.07 L406.5,103.09 L413.84,100.1 L414.66,95.48 L410.04,91.4 L405.96,90.04 L403.78,84.33 L408.95,81.34 L417.11,85.69 L419.83,82.7 L415.48,80.25 L424.73,67.74 L423.1,62.3 L418.75,62.03 L420.38,57.14 L425.82,54.69 L436.97,44.9 L433.71,41.37 L421.2,42.46 L414.67,48.99 L418.48,40.56 L414.13,39.47 L411.68,43.82 L408.15,40.83 L398.36,41.92 L401.08,37.57 L417.12,37.03 L413.04,31.59 L395.64,28.33 L388.57,29.42 L388.84,32.96 L381.5,30.51 L381.77,28.06 L376.6,29.15 L375.51,31.87 L380.95,33.77 L375.24,37.85 L371.16,33.23 L365.45,31.6 L364.63,35.95 L358.92,35.95 L356.74,31.33 L347.77,29.97 L342.88,32.42 L342.61,35.68 L336.36,34.86 L332.55,36.49 L332.82,40.3 L332.82,42.2 L325.75,43.56 L322.49,41.39 L320.31,44.92 L323.57,48.46 L330.37,47.64 L330.91,49.82 L325.74,52.27 L321.13,50.07" />    </g>
    <g fill="#51abcb" fill-opacity="1" stroke="none" transform="matrix(1.01961,0,0,1.01961,-61.2157,-2.19608)" id="country-gm"><path vector-effect="none" fill-rule="nonzero" d="M406.89,298.34 L406.76,299.45 L413.68,299.35 L414.03,298.32 L413.88,297.28 L411.89,298.09 L406.89,298.34 L406.89,298.34" />    </g>
    <g fill="#51abcb" fill-opacity="1" stroke="none" transform="matrix(1.01961,0,0,1.01961,-61.2157,-2.19608)" id="country-gn"><path vector-effect="none" fill-rule="nonzero" d="M410.42,307.94 L413.46,312.62 L417.42,309.18 L421.48,309 L424.86,313.49 L427.73,315.38 L428.81,313.28 L429.77,312.74 L429.7,308.12 L427.79,302.64 L421.93,303.29 L414.68,302.71 L414.64,304.57 L410.42,307.94 L410.42,307.94" />    </g>
    <g fill="#51abcb" fill-opacity="1" stroke="none" transform="matrix(1.01961,0,0,1.01961,-61.2157,-2.19608)" id="country-gp"><path vector-effect="none" fill-rule="nonzero" d="M276.6,283.37 L275.1,283.99 L275.63,285.32 L277.39,284.17 L277.04,283.81 L276.6,283.37" />    </g>
    <g fill="#51abcb" fill-opacity="1" stroke="none" transform="matrix(1.01961,0,0,1.01961,-61.2157,-2.19608)" id="country-gq"><path vector-effect="none" fill-rule="nonzero" d="M480.99,332.69 L480.93,334.08 L485.47,334.31 L485.41,332.74 L480.99,332.69 L480.99,332.69 M486.55,353.23 L488.29,355.49 L490.54,353.36 L489.88,351.15 L489.32,351.11 L486.55,353.23" />    </g>
    <g fill="#51abcb" fill-opacity="1" stroke="none" transform="matrix(1.01961,0,0,1.01961,-61.2157,-2.19608)" id="country-gr"><path vector-effect="none" fill-rule="nonzero" d="M506.71,217.6 L506.6,218.93 L511.23,221.26 L513.44,222.11 L512.28,223.33 L509.7,223.59 L509.33,224.76 L510.22,226.77 L513.11,228.31 L514.37,228.42 L514.53,224.97 L516.42,222.69 L511.26,216.59 L511.94,214.52 L513.15,214.47 L514.99,215.95 L516.15,215.37 L516.52,213.3 L521.94,213.35 L522.15,210.17 L519.89,211.76 L513.26,211.6 L508.95,213.83 L506.71,217.6 L506.71,217.6" />    </g>
    <g fill="#51abcb" fill-opacity="1" stroke="none" transform="matrix(1.01961,0,0,1.01961,-61.2157,-2.19608)" id="country-gt"><path vector-effect="none" fill-rule="nonzero" d="M194.88,291.52 L200.81,295.86 L206.79,288.43 L205.77,286.89 L203.73,286.82 L203.73,282.47 L202.2,281.54 L197.57,282.92 L199.34,287 L194.88,291.52 L194.88,291.52" />    </g>
    <g fill="#51abcb" fill-opacity="1" stroke="none" transform="matrix(1.01961,0,0,1.01961,-61.2157,-2.19608)" id="country-gy"><path vector-effect="none" fill-rule="nonzero" d="M285.05,314.13 L292.27,320.67 L289.4,323.99 L289.17,325.96 L292.94,329.85 L292.85,333.59 L286.29,336.09 L282.36,330.78 L283.2,324.4 L281.52,319.65 L285.05,314.13 L285.05,314.13" />    </g>
    <g fill="#51abcb" fill-opacity="1" stroke="none" transform="matrix(1.01961,0,0,1.01961,-61.2157,-2.19608)" id="country-gw"><path vector-effect="none" fill-rule="nonzero" d="M408.6,304.53 L410,307.3 L413.93,303.92 L413.97,302.88 L409.34,302.21 L408.6,304.53 L408.6,304.53" />    </g>
    <g fill="#51abcb" fill-opacity="1" stroke="none" transform="matrix(1.01961,0,0,1.01961,-61.2157,-2.19608)" id="country-hn"><path vector-effect="none" fill-rule="nonzero" d="M207.55,288.78 L216.79,288.43 L219.53,291.69 L217.82,291.3 L214.53,291.44 L210.23,295.48 L208.39,299.57 L207.18,298.93 L207.17,294.45 L204.51,292.67 L207.55,288.78 L207.55,288.78" />    </g>
    <g fill="#51abcb" fill-opacity="1" stroke="none" transform="matrix(1.01961,0,0,1.01961,-61.2157,-2.19608)" id="country-hr"><path vector-effect="none" fill-rule="nonzero" d="M495.62,195.16 L492.09,198.07 L488.51,198.07 L488.08,200.59 L489.72,201.02 L490.54,199.8 L491.83,200.93 L492.86,204.53 L499.93,207.83 L500.63,207.03 L493.46,199.63 L494.19,198.28 L501,198.02 L501.69,195.85 L497.25,195.98 L495.62,195.16 L495.62,195.16" />    </g>
    <g fill="#51abcb" fill-opacity="1" stroke="none" transform="matrix(1.01961,0,0,1.01961,-61.2157,-2.19608)" id="country-ht"><path vector-effect="none" fill-rule="nonzero" d="M250.86,275.38 L254.3,275.74 L253.89,279.96 L253.55,282.18 L249.54,281.96 L248.83,283.03 L247.6,282.94 L247.16,280.63 L251.39,280.28 L251.13,277.88 L249.19,277.08 L250.86,275.38" />    </g>
    <g fill="#51abcb" fill-opacity="1" stroke="none" transform="matrix(1.01961,0,0,1.01961,-61.2157,-2.19608)" id="country-hu"><path vector-effect="none" fill-rule="nonzero" d="M496.74,189.6 L495.58,191.42 L495.67,194.2 L497.52,195.15 L503.21,195.32 L511.14,188.64 L511.18,187.16 L510.32,186.73 L504.59,189.33 L496.74,189.6 L496.74,189.6" />    </g>
    <g fill="#51abcb" fill-opacity="1" stroke="none" transform="matrix(1.01961,0,0,1.01961,-61.2157,-2.19608)" id="country-id"><path vector-effect="none" fill-rule="nonzero" d="M722.48,317.57 L722.2,319.85 L728.99,331.26 L730.97,331.26 L745.12,354.93 L750.78,355.5 L753.61,347.23 L749.08,344.38 L748.23,339.82 L722.48,317.57 L722.48,317.57 M781.68,324.4 L779.37,333.08 L766.84,337.31 L763.09,332.91 L761.27,333.41 L764.67,346.53 L769.76,347.1 L776.55,349.67 L776.55,352.24 L779.66,351.67 L784.19,345.4 L784.19,340.27 L786.74,335.14 L789.57,335.71 L786.17,328.58 L785.65,323.99 L781.68,324.4 L781.68,324.4 M789.53,349.11 L791.79,351.88 L790.32,356.04 L790.32,356.83 L793.66,356.83 L794.84,346.43 L795.92,346.73 L797.88,356.23 L799.75,356.73 L801.52,352.67 L799.75,346.53 L798.28,343.86 L802.9,340.49 L801.82,339 L797.4,341.87 L796.22,341.87 L794.06,338.7 L794.75,337.31 L798.39,335.53 L803.89,337.21 L805.56,337.11 L809.69,333.25 L808.02,331.57 L804.19,334.54 L801.73,334.54 L798,332.76 L795.35,332.86 L792.4,337.61 L790.53,345.83 L789.53,349.11 L789.53,349.11 M831.93,339.34 L827.76,339.81 L825.08,341.77 L826.19,344.01 L830.73,344.85 L830.73,345.69 L827.86,348.02 L829.25,352.87 L830.64,352.96 L831.84,348.2 L834.06,348.2 L834.99,352.86 L845.82,361.82 L846.1,368.82 L849.8,372.83 L851.47,372.74 L851.84,348.02 L845.55,343.64 L839.62,347.65 L837.49,348.96 L833.97,346.72 L833.88,339.63 L831.93,339.34 L831.93,339.34 M753.17,358.32 L750.42,360.2 L751.01,361.78 L759.76,363.76 L764.18,364.55 L766.05,366.53 L771.06,366.93 L773.42,368.91 L775.58,368.41 L777.55,366.63 L773.91,364.95 L770.77,362.28 L762.61,360.3 L753.17,358.32 L753.17,358.32" />    </g>
    <g fill="#51abcb" fill-opacity="1" stroke="none" transform="matrix(1.01961,0,0,1.01961,-61.2157,-2.19608)" id="country-ie"><path vector-effect="none" fill-rule="nonzero" d="M439.51,166.55 L438.6,172.55 L430.53,175.51 L427.96,175.51 L426.13,174.22 L426.13,173.11 L430.17,170.52 L429.07,168.3 L429.25,165.16 L432.74,165.34 L434.34,161.58 L434.13,164.92 L436.84,167.07 L439.51,166.55" />    </g>
    <g fill="#51abcb" fill-opacity="1" stroke="none" transform="matrix(1.01961,0,0,1.01961,-61.2157,-2.19608)" id="country-il"><path vector-effect="none" fill-rule="nonzero" d="M545.32,238.06 L543.74,243.09 L545.79,249.12 L548.14,240.31 L548.14,238.42 L545.32,238.06 L545.32,238.06" />    </g>
    <g fill="#51abcb" fill-opacity="1" stroke="none" transform="matrix(1.01961,0,0,1.01961,-61.2157,-2.19608)" id="country-in"><path vector-effect="none" fill-rule="nonzero" d="M670.98,313.01 L675.56,310.77 L678.28,300.93 L678.16,288.85 L693.74,272.03 L693.74,268.04 L696.95,266.79 L696.83,262.18 L693.37,255.45 L695.35,251.84 L699.68,255.83 L705.24,256.08 L705.24,258.32 L703.51,260.19 L703.88,261.19 L706.85,261.31 L707.47,264.67 L708.34,264.67 L710.57,260.68 L711.68,250.22 L715.39,247.6 L715.51,243.99 L714.03,241.12 L711.68,241 L702.48,247.08 L703.06,250.99 L696.6,250.97 L694.32,248.18 L693.08,248.34 L693.5,252.22 L679.53,251.22 L670.87,247.36 L670.41,242.61 L664.64,239.03 L664.57,231.66 L660.61,227.13 L651.51,228 L652.5,231.96 L656.96,235.57 L649.25,251.35 L644.09,251.74 L643.24,253.64 L648.32,258.34 L648.07,263.09 L642.88,263.01 L642.32,265.37 L646.63,265.18 L646.75,267.05 L643.66,268.67 L645.64,272.41 L649.47,273.66 L651.82,271.92 L652.93,268.81 L654.29,268.19 L655.9,269.81 L655.41,273.8 L654.3,275.67 L654.55,278.91 L670.98,313.01 L670.98,313.01" />    </g>
    <g fill="#51abcb" fill-opacity="1" stroke="none" transform="matrix(1.01961,0,0,1.01961,-61.2157,-2.19608)" id="country-iq"><path vector-effect="none" fill-rule="nonzero" d="M564.31,225.03 L562.75,232.74 L556.29,238.12 L556.7,240.66 L563.01,241.09 L573.06,249.27 L578.68,249.11 L578.83,247.22 L580.89,245.01 L583.77,246.64 L584.15,246.28 L578.58,238.87 L575.94,238.71 L572.43,234.2 L573.13,230.88 L574.2,230.74 L574.57,229.27 L569.79,224.24 L564.31,225.03 L564.31,225.03" />    </g>
    <g fill="#51abcb" fill-opacity="1" stroke="none" transform="matrix(1.01961,0,0,1.01961,-61.2157,-2.19608)" id="country-ir"><path vector-effect="none" fill-rule="nonzero" d="M569.65,217.95 L568.43,219.22 L568.55,221.23 L570.07,223.36 L575.46,229.26 L574.64,231.62 L573.7,231.62 L573.23,233.98 L576.28,237.88 L579.09,238.12 L584.72,245.91 L587.88,246.15 L590.34,247.92 L590.46,251.46 L600.19,257.13 L603.82,257.13 L606.05,255.24 L608.86,255.12 L610.5,258.9 L621.01,260.36 L621.32,256.5 L624.8,255.24 L624.96,253.86 L622.19,250.08 L616.02,245.12 L619.26,242.17 L619.03,240.87 L614.97,240.24 L613.25,226.54 L613.05,223.39 L602.04,219.18 L597.16,220.28 L594.43,223.63 L592.01,223.47 L591.31,224.06 L585.92,223.71 L579.12,218.75 L576.59,215.98 L575.43,216.26 L573.34,218.65 L569.65,217.95 L569.65,217.95" />    </g>
    <g fill="#51abcb" fill-opacity="1" stroke="none" transform="matrix(1.01961,0,0,1.01961,-61.2157,-2.19608)" id="country-is"><path vector-effect="none" fill-rule="nonzero" d="M406.36,117.31 L404.4,116.2 L401.76,117.87 L399.49,119.97 L399.55,121.14 L402.49,121.51 L402.31,123.61 L401.27,124.66 L401.52,125.34 L404.46,125.53 L404.46,128.93 L408.69,129.67 L411.2,131.09 L414.02,131.21 L418.86,128.8 L422.6,123.86 L422.66,120.52 L420.39,118.6 L418.49,116.99 L417.63,117.61 L416.34,119.28 L414.87,119.09 L413.4,117.48 L411.5,117.66 L408.74,119.95 L407.08,121.74 L406.16,120.94 L406.1,118.96 L407.02,118.34 L406.36,117.31 L406.36,117.31" />    </g>
    <g fill="#51abcb" fill-opacity="1" stroke="none" transform="matrix(1.01961,0,0,1.01961,-61.2157,-2.19608)" id="country-it"><path vector-effect="none" fill-rule="nonzero" d="M472.27,196.98 L471.65,198.55 L471.82,200.26 L474.21,203.05 L477.97,202.92 L486.27,212.56 L491.45,214.06 L494.51,216.95 L495.24,223.54 L496.88,222.58 L498.3,218.99 L497.95,216.41 L500.38,216.19 L500.73,214.73 L493.88,211.45 L487.38,205.06 L484.79,201.24 L484.16,197.61 L487.47,196.82 L486.62,194.43 L484.59,192.72 L482.84,192.64 L480.4,193.31 L478.1,196.53 L476.71,197.45 L474.56,196.13 L472.27,196.98 L472.27,196.98" />    </g>
    <g fill="#51abcb" fill-opacity="1" stroke="none" transform="matrix(1.01961,0,0,1.01961,-61.2157,-2.19608)" id="country-jm"><path vector-effect="none" fill-rule="nonzero" d="M238.93,279.59 L235.45,280.47 L235.45,281.44 L237.48,282.61 L239.61,282.61 L240.96,281.05 L238.93,279.59 L238.93,279.59" />    </g>
    <g fill="#51abcb" fill-opacity="1" stroke="none" transform="matrix(1.01961,0,0,1.01961,-61.2157,-2.19608)" id="country-jo"><path vector-effect="none" fill-rule="nonzero" d="M548.9,240.78 L546.44,249.36 L546.33,250.67 L550.2,250.67 L554.53,246.85 L554.64,245.4 L552.87,243.59 L556.04,240.96 L555.58,238.52 L554.71,238.72 L552.07,240.61 L548.9,240.78 L548.9,240.78" />    </g>
    <g fill="#51abcb" fill-opacity="1" stroke="none" transform="matrix(1.01961,0,0,1.01961,-61.2157,-2.19608)" id="country-jp"><path vector-effect="none" fill-rule="nonzero" d="M816.43,163.44 L814.9,164.79 L815.67,167.68 L817.01,169.03 L816.91,173.46 L815.19,174.13 L813.85,177.12 L817.77,182.51 L820.35,181.64 L820.83,180.29 L818.06,177.79 L819.78,175.57 L821.6,175.86 L823.03,177.4 L823.13,174.22 L827.05,171.04 L829.25,170.46 L827.43,167.38 L826.57,166.03 L825.14,166.99 L823.9,168.53 L821.22,167.95 L818.45,166.12 L816.43,163.44 L816.43,163.44 M808.2,206.98 L803.32,212.57 L804.18,213.92 L806.57,214.21 L811.06,210.74 L814.22,210.16 L817.09,213.53 L819.29,212.76 L820.15,209.48 L824.26,209.38 L828.28,204.56 L826.18,196.56 L825.22,192.32 L827.32,190.59 L822.54,183.37 L821.3,183.47 L818.72,186.36 L818.72,188.77 L819.87,190.12 L820.25,196.48 L817.29,200.14 L815.57,199.08 L814.23,202.07 L813.94,204.86 L814.99,206.5 L814.32,207.75 L812.12,205.92 L810.59,205.92 L809.25,206.69 L808.2,206.98 L808.2,206.98 M812.03,213.15 L809.26,215.75 L809.16,218.74 L809.83,219.61 L813.56,216.43 L813.27,213.25 L812.03,213.15 L812.03,213.15 M803.23,216.42 L801.6,218.06 L802.27,220.37 L803.7,220.47 L804.66,225.48 L805.81,226.73 L807.82,224.9 L808.68,221.62 L806.19,218.06 L803.23,216.42" />    </g>
    <g fill="#51abcb" fill-opacity="1" stroke="none" transform="matrix(1.01961,0,0,1.01961,-61.2157,-2.19608)" id="country-ke"><path vector-effect="none" fill-rule="nonzero" d="M550.83,326.52 L553.49,331.71 L550.3,338.4 L549.88,340.43 L565.81,350.28 L570.75,342.52 L568.25,340.49 L568.2,330.27 L571.33,326.85 L566.34,328.51 L562.57,328.56 L556.67,323.58 L554.81,322.78 L551.36,323.1 L550.75,324.12 L550.83,326.52 L550.83,326.52" />    </g>
    <g fill="#51abcb" fill-opacity="1" stroke="none" transform="matrix(1.01961,0,0,1.01961,-61.2157,-2.19608)" id="country-kg"><path vector-effect="none" fill-rule="nonzero" d="M636.81,199.21 L636.5,201.74 L636.75,203.3 L645.45,206.22 L637.81,209.3 L636.94,208.58 L635.29,209.64 L635.37,210.22 L636.25,210.62 L641.61,210.76 L644.33,209.94 L647.82,205.54 L652.19,206.3 L657.46,199 L643.36,197.08 L641.41,201.81 L638.95,199.17 L636.81,199.21 L636.81,199.21" />    </g>
    <g fill="#51abcb" fill-opacity="1" stroke="none" transform="matrix(1.01961,0,0,1.01961,-61.2157,-2.19608)" id="country-kh"><path vector-effect="none" fill-rule="nonzero" d="M740.48,299.47 L744.57,303.84 L752.18,298.2 L752.85,289.3 L748.92,292.01 L746.88,290.87 L744.11,290.5 L742.56,289.41 L741.81,289.45 L739.78,292.78 L740.11,294.32 L742.17,295.47 L741.92,298.6 L740.48,299.47 L740.48,299.47" />    </g>
    <g fill="#51abcb" fill-opacity="1" stroke="none" transform="matrix(1.01961,0,0,1.01961,-61.2157,-2.19608)" id="country-kp"><path vector-effect="none" fill-rule="nonzero" d="M778.28,194.27 L780.12,195.04 L780.68,201.48 L784.33,201.69 L787.77,197.66 L786.58,196.6 L786.72,192.28 L789.88,188.46 L788.27,185.56 L789.32,184.36 L789.9,181.36 L788.07,180.53 L786.51,181.32 L784.58,187.18 L781.46,186.91 L777.85,191.17 L778.28,194.27 L778.28,194.27" />    </g>
    <g fill="#51abcb" fill-opacity="1" stroke="none" transform="matrix(1.01961,0,0,1.01961,-61.2157,-2.19608)" id="country-kr"><path vector-effect="none" fill-rule="nonzero" d="M788.34,198.2 L794.52,203.24 L795.57,208.12 L795.36,210.74 L792.34,214.14 L789.74,214.28 L786.79,207.91 L785.67,204.87 L786.86,203.95 L786.58,202.68 L785.11,202.02 L788.34,198.2 L788.34,198.2" />    </g>
    <g fill="#51abcb" fill-opacity="1" stroke="none" transform="matrix(1.01961,0,0,1.01961,-61.2157,-2.19608)" id="country-kw"><path vector-effect="none" fill-rule="nonzero" d="M583.29,247.17 L581.04,245.95 L579.48,247.52 L579.65,250.66 L583.28,252.05 L583.29,247.17" />    </g>
    <g fill="#51abcb" fill-opacity="1" stroke="none" transform="matrix(1.01961,0,0,1.01961,-61.2157,-2.19608)" id="country-kz"><path vector-effect="none" fill-rule="nonzero" d="M576.69,188.62 L580.79,186.87 L585.37,186.71 L585.69,193.71 L583.01,193.71 L580.96,197.05 L583.64,201.5 L587.59,203.73 L587.95,206.28 L589.4,205.8 L590.74,204.21 L592.95,204.69 L594.06,206.92 L596.9,206.92 L596.9,204.06 L595.16,198.97 L594.37,194.84 L599.42,192.61 L606.21,193.72 L610.47,198.01 L620.1,197.06 L625.47,204.69 L631.78,205.01 L633.52,202.15 L635.73,201.67 L636.05,198.49 L639.36,198.33 L641.1,200.4 L642.84,196.27 L657.83,198.34 L660.35,195 L656.09,189.75 L661.77,177.35 L666.35,177.67 L669.51,170.04 L663.2,169.4 L659.57,165.9 L649.57,167.06 L636.69,154.61 L632.15,158.64 L618.38,152.39 L601.49,160.66 L601.02,166.54 L604.97,171.15 L597.27,175.5 L587.28,175.28 L585.19,172.21 L577.36,171.78 L569.94,176.55 L569.78,183.07 L576.69,188.62 L576.69,188.62" />    </g>
    <g fill="#51abcb" fill-opacity="1" stroke="none" transform="matrix(1.01961,0,0,1.01961,-61.2157,-2.19608)" id="country-la"><path vector-effect="none" fill-rule="nonzero" d="M735.47,262.93 L733.05,264.16 L731.04,270.02 L734.4,274.3 L733.84,279.03 L734.4,279.26 L739.99,276.55 L747.49,284.93 L747.31,290.21 L748.94,291.09 L752.97,287.82 L752.64,285.23 L741.01,274.18 L741.12,272.49 L742.57,271.48 L741.56,268.66 L736.75,267.87 L735.47,262.93 L735.47,262.93" />    </g>
    <g fill="#51abcb" fill-opacity="1" stroke="none" transform="matrix(1.01961,0,0,1.01961,-61.2157,-2.19608)" id="country-lb"><path vector-effect="none" fill-rule="nonzero" d="M546.2,232.44 L546.26,234.39 L545.44,237.35 L548.26,237.59 L548.44,233.39 L546.2,232.44 L546.2,232.44" />    </g>
    <g fill="#51abcb" fill-opacity="1" stroke="none" transform="matrix(1.01961,0,0,1.01961,-61.2157,-2.19608)" id="country-lk"><path vector-effect="none" fill-rule="nonzero" d="M680.54,308.05 L680.79,310.77 L681.04,312.75 L679.57,313 L680.31,317.45 L682.52,318.69 L685.95,316.71 L684.97,312.02 L685.22,310.29 L682.03,307.33 L680.54,308.05 L680.54,308.05" />    </g>
    <g fill="#51abcb" fill-opacity="1" stroke="none" transform="matrix(1.01961,0,0,1.01961,-61.2157,-2.19608)" id="country-lr"><path vector-effect="none" fill-rule="nonzero" d="M420.17,319.19 L431.15,326.53 L430.89,320.97 L427.57,317.06 L424.33,314.19 L420.17,319.19" />    </g>
    <g fill="#51abcb" fill-opacity="1" stroke="none" transform="matrix(1.01961,0,0,1.01961,-61.2157,-2.19608)" id="country-ls"><path vector-effect="none" fill-rule="nonzero" d="M527.41,425.39 L530.46,423.04 L531.9,423.1 L533.64,425.27 L533.46,427.44 L530.53,428.52 L530.53,429.36 L527.3,429.18 L526.52,426.83 L527.41,425.39" />    </g>
    <g fill="#51abcb" fill-opacity="1" stroke="none" transform="matrix(1.01961,0,0,1.01961,-61.2157,-2.19608)" id="country-lt"><path vector-effect="none" fill-rule="nonzero" d="M510.81,154.7 L508.66,154.65 L505.71,157.47 L503.21,157.47 L503.36,161 L501.86,163.77 L507.26,163.82 L508.81,163.62 L510.36,165.49 L513.91,165.34 L517.31,161.01 L517.11,158.44 L510.81,154.7" />    </g>
    <g fill="#51abcb" fill-opacity="1" stroke="none" transform="matrix(1.01961,0,0,1.01961,-61.2157,-2.19608)" id="country-lv"><path vector-effect="none" fill-rule="nonzero" d="M518.07,151.37 L511.22,150.26 L511.37,154.09 L517.72,157.97 L520.32,157.21 L520.17,154.29 L518.07,151.37 L518.07,151.37" />    </g>
    <g fill="#51abcb" fill-opacity="1" stroke="none" transform="matrix(1.01961,0,0,1.01961,-61.2157,-2.19608)" id="country-ly"><path vector-effect="none" fill-rule="nonzero" d="M480.05,248.03 L481.61,247.77 L482.07,244.17 L482.85,244.17 L486.04,238.93 L493.91,241.22 L496.06,244.56 L503.8,248.1 L507.83,246.4 L507.44,244.7 L505.68,243 L505.88,241.82 L508.74,239.4 L514.4,239.4 L516.55,242.28 L521.1,242.94 L521.69,279.83 L518.31,279.7 L497.89,269.08 L495.68,270.33 L487.29,268.23 L485.01,265.22 L481.69,264.76 L480,261.75 L480.05,248.03 L480.05,248.03" />    </g>
    <g fill="#51abcb" fill-opacity="1" stroke="none" transform="matrix(1.01961,0,0,1.01961,-61.2157,-2.19608)" id="country-ma"><path vector-effect="none" fill-rule="nonzero" d="M448.29,232.28 L436.74,232.28 L434.48,237.3 L429.27,239.81 L424.97,251.45 L416.59,256.47 L404.82,275.86 L416.37,275.63 L416.82,269.93 L419.76,269.93 L419.76,262.17 L429.95,262.17 L430.18,252.13 L439.92,249.85 L444,243.23 L450.34,243 L448.29,232.28 L448.29,232.28" />    </g>
    <g fill="#51abcb" fill-opacity="1" stroke="none" transform="matrix(1.01961,0,0,1.01961,-61.2157,-2.19608)" id="country-md"><path vector-effect="none" fill-rule="nonzero" d="M520.75,187.71 L523.85,192.48 L523.59,195.18 L524.7,195.23 L527.33,190.78 L524.17,186.86 L522.38,186.12 L520.75,187.71" />    </g>
    <g fill="#51abcb" fill-opacity="1" stroke="none" transform="matrix(1.01961,0,0,1.01961,-61.2157,-2.19608)" id="country-me"><path vector-effect="none" fill-rule="nonzero" d="M504.902,207.248 L504.857,206.313 L503.537,204.459 L501.4,207.48 L501.82,208.75 L503.56,209.07 L504.902,207.248" />    </g>
    <g fill="#51abcb" fill-opacity="1" stroke="none" transform="matrix(1.01961,0,0,1.01961,-61.2157,-2.19608)" id="country-mg"><path vector-effect="none" fill-rule="nonzero" d="M592.3,372.92 L590.17,377.98 L586.52,384.42 L580.13,384.88 L577.39,388.1 L577.85,397.92 L573.89,402.52 L574.35,410.34 L577.7,414.17 L581.66,413.71 L585.62,410.79 L584.71,406.19 L593.84,390.39 L592.01,388.4 L593.84,384.57 L595.82,385.18 L596.43,383.65 L594.6,375.83 L593.53,372.61 L592.3,372.92" />    </g>
    <g fill="#51abcb" fill-opacity="1" stroke="none" transform="matrix(1.01961,0,0,1.01961,-61.2157,-2.19608)" id="country-mk"><path vector-effect="none" fill-rule="nonzero" d="M510.92,208.01 L507.55,209.12 L507.71,211.98 L508.5,212.99 L512.5,211.13 L510.92,208.01" />    </g>
    <g fill="#51abcb" fill-opacity="1" stroke="none" transform="matrix(1.01961,0,0,1.01961,-61.2157,-2.19608)" id="country-ml"><path vector-effect="none" fill-rule="nonzero" d="M419.46,295.84 L422.54,293.73 L439.66,293.63 L435.7,266.09 L440.22,265.96 L462.09,282.65 L465.03,283.07 L463.92,292.35 L450.17,293.6 L439.56,301.52 L437.63,306.94 L430.26,307.25 L428.38,301.84 L422.73,302.24 L422.95,300.47 L419.46,295.84 L419.46,295.84" />    </g>
    <g fill="#51abcb" fill-opacity="1" stroke="none" transform="matrix(1.01961,0,0,1.01961,-61.2157,-2.19608)" id="country-mm"><path vector-effect="none" fill-rule="nonzero" d="M729.44,303.65 L726.67,299.21 L728.68,296.39 L726.78,292.9 L724.99,292.56 L724.65,286.7 L721.97,281.51 L721.19,282.75 L719.4,285.79 L717.16,286.13 L716.04,284.66 L715.48,280.71 L713.8,277.55 L706.96,271.1 L708.64,269.99 L708.95,265.32 L711.45,261.12 L712.53,250.67 L716.15,248.2 L716.27,244.39 L718.44,245.11 L721.86,250.06 L719.32,255.5 L721.03,259.77 L725.26,261.43 L726.03,266.08 L731.71,266.96 L730.14,269.67 L722.98,272.49 L722.2,277.11 L727.46,283.87 L727.68,287.48 L726.45,288.72 L726.56,289.85 L730.48,295.6 L730.59,301.57 L729.44,303.65 L729.44,303.65" />    </g>
    <g fill="#51abcb" fill-opacity="1" stroke="none" transform="matrix(1.01961,0,0,1.01961,-61.2157,-2.19608)" id="country-mn"><path vector-effect="none" fill-rule="nonzero" d="M673.8,170.17 L679.62,162.45 L686.61,165.68 L691.36,166.95 L697.18,161.61 L693.23,158.7 L695.83,155.03 L703.59,157.77 L706.28,162.18 L711.14,162.31 L713.68,160.42 L718.91,160.21 L720.05,162.15 L728.74,162.59 L734.24,156.98 L741.85,157.78 L741.41,165.42 L744.74,166.18 L748.83,164.32 L753.16,166.46 L753.06,167.54 L749.92,167.63 L746.65,174.49 L744.11,174.74 L734.23,187.65 L724.14,192.1 L717.83,192.59 L712.59,189.21 L705.89,192.79 L699.29,190.74 L697.42,185.95 L684.92,185.07 L678.52,174.22 L675.41,174.02 L673.8,170.17" />    </g>
    <g fill="#51abcb" fill-opacity="1" stroke="none" transform="matrix(1.01961,0,0,1.01961,-61.2157,-2.19608)" id="country-mr"><path vector-effect="none" fill-rule="nonzero" d="M404.9,276.66 L407.08,279.51 L406.63,291.83 L409.8,289.55 L412.06,289.09 L415.23,290.23 L418.85,295.25 L422.25,292.97 L438.78,292.74 L434.7,265.13 L439.08,265.11 L430.92,258.86 L430.93,262.92 L420.6,262.93 L420.55,270.68 L417.58,270.67 L417.2,276.39 L404.9,276.66 L404.9,276.66" />    </g>
    <g fill="#51abcb" fill-opacity="1" stroke="none" transform="matrix(1.01961,0,0,1.01961,-61.2157,-2.19608)" id="country-mw"><path vector-effect="none" fill-rule="nonzero" d="M547.16,379.4 L550.27,382.65 L550.21,386.81 L550.81,388.56 L554.94,384.1 L554.46,378.43 L552.25,376.74 L550.28,366.79 L546.87,366.67 L548.42,373.84 L547.16,379.4" />    </g>
    <g fill="#51abcb" fill-opacity="1" stroke="none" transform="matrix(1.01961,0,0,1.01961,-61.2157,-2.19608)" id="country-mx"><path vector-effect="none" fill-rule="nonzero" d="M137.49,225.43 L142.32,240.64 L140.07,241.9 L140.32,244.92 L144.57,248.19 L144.57,254.24 L149.82,259.28 L147.57,244.42 L144.57,234.59 L145.32,227.79 L147.82,228.04 L148.82,230.31 L147.82,236.1 L160.82,261.54 L160.82,270.61 L171.32,282.95 L182.82,288.24 L187.57,285.47 L194.32,291.01 L198.32,286.98 L196.57,282.44 L202.32,280.68 L204.07,281.69 L205.82,279.93 L208.57,279.93 L213.57,271.11 L211.07,268.84 L201.32,271.11 L199.07,277.66 L193.32,278.67 L186.57,275.9 L183.57,266.33 L185.84,254.26 L181.2,251.37 L178.99,239.78 L177.14,238.99 L173.76,242.42 L169.88,240.35 L168.36,232.62 L152.99,231.01 L145.05,225.04 L137.49,225.43 L137.49,225.43" />    </g>
    <g fill="#51abcb" fill-opacity="1" stroke="none" transform="matrix(1.01961,0,0,1.01961,-61.2157,-2.19608)" id="country-my"><path vector-effect="none" fill-rule="nonzero" d="M732.71,315.45 L734.72,319.96 L735.17,325.82 L737.86,329.99 L744.35,333.93 L746.81,334.16 L746.36,330.1 L744.23,324.92 L741.11,318.29 L740.85,319.45 L737.09,319.28 L734.39,315.4 L732.71,315.45 M764.14,332.92 L767.16,336.41 L778.74,332.4 L781.03,323.56 L786.19,323.19 L790.91,319.77 L784.79,315.31 L783.39,312.86 L780.37,318.43 L781.48,321.63 L779.64,324.3 L776.17,323.41 L767.76,329.58 L767.98,333.15 L764.14,332.92 L764.14,332.92" />    </g>
    <g fill="#51abcb" fill-opacity="1" stroke="none" transform="matrix(1.01961,0,0,1.01961,-61.2157,-2.19608)" id="country-mz"><path vector-effect="none" fill-rule="nonzero" d="M541.17,413.28 L543.86,415.51 L550.2,411.65 L551.22,405.92 L551.22,396.46 L561.39,388.14 L563.13,388.2 L569.29,382.29 L568.33,370.11 L552,372.17 L552.48,375.85 L555.29,378.02 L555.95,384.65 L550.45,390.02 L549.13,387.01 L549.37,383.03 L546.2,379.59 L538.42,383.21 L545.66,386.89 L545.9,397.62 L541.11,404.73 L541.17,413.28 L541.17,413.28" />    </g>
    <g fill="#51abcb" fill-opacity="1" stroke="none" transform="matrix(1.01961,0,0,1.01961,-61.2157,-2.19608)" id="country-na"><path vector-effect="none" fill-rule="nonzero" d="M496.55,421.96 L499.9,422.2 L501.87,424.19 L506.54,424.25 L507.68,410.99 L507.68,402.31 L510.67,401.71 L511.81,392.61 L519.41,392.37 L522.1,390.14 L517.55,389.96 L511.39,390.8 L504.75,388.39 L486.09,388.39 L486.57,393.69 L492.79,402.85 L491.71,407.55 L491.77,410.02 L496.55,421.96 L496.55,421.96" />    </g>
    <g fill="#51abcb" fill-opacity="1" stroke="none" transform="matrix(1.01961,0,0,1.01961,-61.2157,-2.19608)" id="country-ne"><path vector-effect="none" fill-rule="nonzero" d="M460.89,302 L463.44,301.94 L465.74,298.49 L469.6,297.8 L473.71,300.31 L482.48,300.56 L489.26,297.8 L491.81,295.61 L492,292.73 L496.73,287.96 L497.98,277.43 L494.87,270.91 L486.91,268.97 L468.49,283.33 L465.88,283.08 L464.76,293.05 L455.36,293.99 L460.89,302 L460.89,302" />    </g>
    <g fill="#51abcb" fill-opacity="1" stroke="none" transform="matrix(1.01961,0,0,1.01961,-61.2157,-2.19608)" id="country-ng"><path vector-effect="none" fill-rule="nonzero" d="M461.57,319.37 L465.49,319.56 L470.22,324.83 L472.52,325.46 L474.32,324.58 L477.06,324.2 L477.99,320.38 L481.72,317.93 L485.76,317.74 L493.16,304.13 L493.04,301.06 L489.62,298.43 L482.78,301.44 L473.63,301.31 L469.27,298.55 L466.16,299.24 L464.54,302.06 L464.42,310.02 L461.81,313.72 L461.57,319.37 L461.57,319.37" />    </g>
    <g fill="#51abcb" fill-opacity="1" stroke="none" transform="matrix(1.01961,0,0,1.01961,-61.2157,-2.19608)" id="country-ni"><path vector-effect="none" fill-rule="nonzero" d="M217.74,292.11 L219.93,292.55 L220,297.04 L217.45,304.32 L210.58,303.64 L209.05,300.13 L211.09,295.87 L214.96,292.27 L217.74,292.11 L217.74,292.11" />    </g>
    <g fill="#51abcb" fill-opacity="1" stroke="none" transform="matrix(1.01961,0,0,1.01961,-61.2157,-2.19608)" id="country-nl"><path vector-effect="none" fill-rule="nonzero" d="M470.09,168.27 L465.56,170.5 L466.52,171.37 L466.62,173.6 L465.66,173.41 L464.6,171.76 L462.07,175.77 L465.96,176.58 L467.41,178.11 L468.18,178.13 L468.69,174.67 L471.14,173.64 L470.09,168.27 L470.09,168.27" />    </g>
    <g fill="#51abcb" fill-opacity="1" stroke="none" transform="matrix(1.01961,0,0,1.01961,-61.2157,-2.19608)" id="country-no"><path vector-effect="none" fill-rule="nonzero" d="M515.46,102.14 L517.48,100.66 L517.3,99 L516.02,98.26 L516.2,96.23 L517.3,96.23 L517.3,95.12 L512.53,93.83 L505.38,94.57 L504.65,97.71 L503,97.16 L501.9,95.31 L498.41,95.49 L498.04,99 L496.39,99.74 L495.47,97.89 L488.13,103.8 L489.6,105.46 L486.85,106.75 L480.61,119.13 L478.41,120.61 L478.59,121.72 L480.79,122.83 L480.24,125.23 L476.57,125.04 L475.47,123.75 L473.09,126.52 L471.62,127.63 L471.25,130.22 L469.97,130.96 L466.67,131.7 L465.02,136.88 L466.12,145.38 L467.4,149.26 L468.87,150.74 L472.17,150.56 L476.94,145.94 L478.77,142.8 L479.32,147.42 L482.44,141.88 L482.62,126.35 L485.16,124.75 L485.92,116.18 L493.62,105.09 L497.29,103.8 L498.94,101.77 L504.44,103.06 L507.19,104.72 L508.11,100.1 L512.7,97.33 L515.46,102.14 L515.46,102.14" />    </g>
    <g fill="#51abcb" fill-opacity="1" stroke="none" transform="matrix(1.01961,0,0,1.01961,-61.2157,-2.19608)" id="country-np"><path vector-effect="none" fill-rule="nonzero" d="M671.19,242.56 L671.65,246.83 L679.73,250.49 L692.68,251.45 L692.19,248.32 L683.54,245.94 L676.2,241.57 L671.19,242.56 L671.19,242.56" />    </g>
    <g fill="#51abcb" fill-opacity="1" stroke="none" transform="matrix(1.01961,0,0,1.01961,-61.2157,-2.19608)" id="country-nz"><path vector-effect="none" fill-rule="nonzero" d="M913.02,481.96 L914.08,493.76 L912.66,499.12 L907.34,503.05 L907.69,507.7 L907.69,512.7 L909.11,514.49 L923.66,501.98 L923.66,499.12 L920.11,499.12 L915.14,482.32 L913.02,481.96 L913.02,481.96 M902.38,507.7 L905.22,513.06 L897.41,520.57 L896.7,524.5 L891.38,525.21 L882.51,533.43 L874.35,529.5 L873.64,526.64 L888.54,520.21 L902.38,507.7 L902.38,507.7" />    </g>
    <g fill="#51abcb" fill-opacity="1" stroke="none" transform="matrix(1.01961,0,0,1.01961,-61.2157,-2.19608)" id="country-om"><path vector-effect="none" fill-rule="nonzero" d="M598.38,280.84 L605.77,276.58 L607.08,270.33 L605.46,269.4 L606.13,262.7 L607.54,261.88 L609.05,264.25 L618.04,268.95 L618.04,271.56 L607.15,287.59 L602.14,287.76 L598.38,280.84 L598.38,280.84" />    </g>
    <g fill="#51abcb" fill-opacity="1" stroke="none" transform="matrix(1.01961,0,0,1.01961,-61.2157,-2.19608)" id="country-pa"><path vector-effect="none" fill-rule="nonzero" d="M220.59,309.61 L219.13,314.17 L223.95,315.42 L226.94,316.01 L227.45,312.48 L230.66,310.86 L233.51,312.33 L234.63,314.12 L235.99,313.96 L237.06,310.71 L233.5,309.24 L230.8,307.77 L228.1,309.61 L224.89,311.23 L221.61,309.91 L220.59,309.61 L220.59,309.61" />    </g>
    <g fill="#51abcb" fill-opacity="1" stroke="none" transform="matrix(1.01961,0,0,1.01961,-61.2157,-2.19608)" id="country-pe"><path vector-effect="none" fill-rule="nonzero" d="M225.03,349.52 L223.09,351.48 L223.22,354.61 L240.16,385.49 L257.75,396.83 L260.47,392.27 L261.12,382.24 L259.7,375.99 L254.91,367.91 L252.06,368.82 L250.77,370.25 L245.08,363.73 L246.5,356.04 L253.1,351.74 L252.58,347.7 L245.86,347.44 L242.37,341.58 L240.43,340.93 L240.56,344.45 L231.9,354.74 L225.43,353.18 L225.03,349.52 L225.03,349.52" />    </g>
    <g fill="#51abcb" fill-opacity="1" stroke="none" transform="matrix(1.01961,0,0,1.01961,-61.2157,-2.19608)" id="country-pg"><path vector-effect="none" fill-rule="nonzero" d="M852.76,348.29 L852.39,372.73 L855.91,372.54 L860.54,367.13 L864.43,367.32 L866.93,369.56 L867.76,376.46 L875.72,380.66 L877.76,379.91 L877.76,377.39 L871.37,372.07 L868.22,364.79 L870.72,363.58 L868.87,359.57 L865.17,359.48 L864.24,355.19 L854.43,348.57 L852.76,348.29 L852.76,348.29" />    </g>
    <g fill="#51abcb" fill-opacity="1" stroke="none" transform="matrix(1.01961,0,0,1.01961,-61.2157,-2.19608)" id="country-ph"><path vector-effect="none" fill-rule="nonzero" d="M791.38,272.97 L788.8,274.8 L788.51,280.58 L792.53,288.38 L793.87,289.44 L795.59,288.28 L798.55,288.76 L799.12,291.36 L801.32,291.55 L802.37,290.11 L801.03,288.28 L799.4,286.74 L795.96,286.36 L794.14,283.37 L796.24,280.19 L796.43,277.4 L795,273.84 L791.38,272.97 M802.28,297.15 L802.18,301.58 L803.23,303.31 L805.05,301.19 L804.57,297.34 L802.28,297.15 L802.28,297.15 M806.96,302.35 L807.34,305.24 L803.99,307.94 L801.22,308.23 L798.26,311.41 L798.36,312.86 L801.13,311.99 L803.04,310.74 L804.67,314.88 L807.54,316.9 L808.69,316.51 L809.74,315.26 L807.45,312.95 L808.79,311.89 L810.32,313.14 L811.37,311.41 L810.32,309.29 L810.13,304.57 L806.96,302.35 L806.96,302.35" />    </g>
    <g fill="#51abcb" fill-opacity="1" stroke="none" transform="matrix(1.01961,0,0,1.01961,-61.2157,-2.19608)" id="country-pk"><path vector-effect="none" fill-rule="nonzero" d="M623.13,249.84 L625.73,253.7 L625.48,255.69 L622.02,257.06 L621.77,260.3 L625.73,260.3 L627.09,259.18 L634.63,259.18 L641.43,265.16 L642.3,262.29 L647.37,262.29 L647.49,258.68 L642.3,253.7 L643.41,250.96 L648.73,250.59 L655.9,235.64 L651.94,232.53 L650.46,227.3 L660.1,226.43 L654.41,218.33 L651.38,217.51 L650.14,219.01 L649.21,219.08 L643.52,222.69 L645.38,225.81 L643.28,228.05 L640.68,237.64 L634.25,241.75 L633.38,246.24 L623.13,249.84 L623.13,249.84" />    </g>
    <g fill="#51abcb" fill-opacity="1" stroke="none" transform="matrix(1.01961,0,0,1.01961,-61.2157,-2.19608)" id="country-pl"><path vector-effect="none" fill-rule="nonzero" d="M511.46,174.76 L512.31,176.32 L512.51,177.98 L511.81,179.59 L510.21,182.67 L508.86,183.28 L507.11,182.52 L506.06,182.57 L503.51,183.53 L500.61,182.67 L495.91,179.34 L491.31,176.87 L489.46,174.05 L489.11,167.4 L492.71,164.27 L497.41,162.71 L499.16,162.51 L498.46,163.92 L498.91,164.47 L506.82,164.62 L508.52,164.57 L511.32,168.86 L510.62,170.62 L510.92,172.69 L511.46,174.76 L511.46,174.76" />    </g>
    <g fill="#51abcb" fill-opacity="1" stroke="none" transform="matrix(1.01961,0,0,1.01961,-61.2157,-2.19608)" id="country-pr"><path vector-effect="none" fill-rule="nonzero" d="M271.05,281.06 L268.41,280.17 L266.29,281.5 L267.35,282.74 L270.96,283.27 L271.05,281.06 L271.05,281.06" />    </g>
    <g fill="#51abcb" fill-opacity="1" stroke="none" transform="matrix(1.01961,0,0,1.01961,-61.2157,-2.19608)" id="country-pt"><path vector-effect="none" fill-rule="nonzero" d="M430.93,211.24 L430.31,219.89 L428.54,221.49 L428.72,222.47 L429.96,224.52 L429.16,227.02 L430.49,227.47 L433.59,227.11 L433.41,224.61 L435.44,213.02 L435,211.42 L430.93,211.24" />    </g>
    <g fill="#51abcb" fill-opacity="1" stroke="none" transform="matrix(1.01961,0,0,1.01961,-61.2157,-2.19608)" id="country-py"><path vector-effect="none" fill-rule="nonzero" d="M291.76,399.51 L293.96,401.91 L293.7,406.99 L300.04,406.6 L304.83,412.73 L304.44,418.2 L301.34,422.89 L295,423.15 L294.74,420.54 L296.55,416.24 L290.34,412.33 L285.17,412.33 L281.29,408.16 L284.11,400.1 L291.76,399.51 L291.76,399.51" />    </g>
    <g fill="#51abcb" fill-opacity="1" stroke="none" transform="matrix(1.01961,0,0,1.01961,-61.2157,-2.19608)" id="country-qa"><path vector-effect="none" fill-rule="nonzero" d="M592.63,259.02 L592.11,263.03 L593.65,264.2 L595.05,264.07 L595.57,259.02 L594.36,258.15 L592.63,259.02 L592.63,259.02" />    </g>
    <g fill="#51abcb" fill-opacity="1" stroke="none" transform="matrix(1.01961,0,0,1.01961,-61.2157,-2.19608)" id="country-ro"><path vector-effect="none" fill-rule="nonzero" d="M512.18,187.6 L511.92,189.08 L506.13,193.9 L510.97,201 L514.07,203.17 L519.65,203.17 L521.49,201.63 L523.96,201.31 L525.8,202.42 L529.06,198.71 L528.43,196.85 L525.12,196 L522.86,195.89 L522.97,192.71 L519.97,187.99 L512.18,187.6" />    </g>
    <g fill="#51abcb" fill-opacity="1" stroke="none" transform="matrix(1.01961,0,0,1.01961,-61.2157,-2.19608)" id="country-rs"><path vector-effect="none" fill-rule="nonzero" d="M505.55,194.54 L503.5,196.08 L502.5,196.08 L501.82,198.2 L504.24,201.01 L504.4,203.24 L504.059,203.723 L505.695,206.021 L505.752,207.241 L506.93,208.381 L510.77,207.211 L510.45,201.75 L505.55,194.54 L505.55,194.54" />    </g>
    <g fill="#51abcb" fill-opacity="1" stroke="none" transform="matrix(1.01961,0,0,1.01961,-61.2157,-2.19608)" id="country-ru"><path vector-effect="none" fill-rule="nonzero" d="M817.97,72.93 L819.73,79.01 L823.25,80.02 L826.77,74.45 L824.76,70.65 L825.51,67.36 L830.79,67.36 L829.53,69.89 L830.03,79.01 L822.49,97.75 L823.24,101.8 L822.99,108.64 L837.06,129.15 L839.82,129.91 L840.07,113.2 L842.83,110.67 L839.81,104.09 L842.32,101.3 L836.79,93.96 L833.77,94.21 L832.77,82.06 L840.56,80.03 L841.06,76.48 L845.08,75.47 L847.34,77.5 L850.1,66.36 L854.87,58.26 L858.64,56.23 L861.91,56.48 L861.91,52.68 L856.63,51.67 L849.34,45.59 L852.86,41.54 L849.84,34.7 L852.35,32.17 L855.37,36.22 L862.91,39.01 L871.2,39.77 L872.21,36.23 L867.94,31.93 L872.71,25.35 L861.9,21.55 L859.14,27.12 L855.62,22.56 L835.77,15.72 L816.92,19.01 L814.16,20.53 L814.16,22.05 L818.18,24.08 L817.68,28.89 L810.39,25.85 L794.31,32.18 L791.55,26.36 L780.49,26.36 L775.46,31.68 L757.62,27.63 L741.29,30.92 L739.28,35.98 L741.79,36.74 L741.54,40.54 L725.71,42.31 L726.72,47.37 L712.14,44.84 L715.66,38.26 L700.83,37.5 L702.09,44.34 L697.32,46.62 L693.3,42.82 L676.97,45.61 L670.69,51.43 L670.44,54.97 L666.42,55.22 L665.92,51.17 L678.74,40.03 L678.74,32.43 L670.45,30.15 L659.64,33.69 L655.12,29.13 L653.11,29.13 L650.6,34.19 L652.61,36.47 L638.28,44.32 L625.97,53.69 L618.43,64.07 L618.43,68.37 L626.47,71.66 L622.45,74.7 L613.91,71.66 L610.39,74.7 L605.11,68.62 L604.1,70.9 L609.88,89.13 L611.39,89.64 L615.41,87.61 L617.42,89.13 L617.42,92.42 L613.65,90.9 L611.39,92.67 L612.9,95.96 L611.64,104.57 L603.85,105.33 L603.35,102.54 L607.87,99.75 L608.88,92.15 L603.85,85.57 L602.09,74.18 L594.05,72.91 L593.3,76.96 L594.81,78.99 L591.54,81.78 L592.8,89.38 L597.57,91.41 L598.58,96.98 L593.8,93.94 L581.49,91.66 L579.98,95.71 L570.18,99.25 L568.67,96.72 L555.85,103.81 L555.6,108.62 L550.57,109.38 L552.08,105.84 L552.08,102.3 L547.05,100.53 L543.78,101.8 L546.54,107.12 L548.55,110.66 L548.55,113.45 L544.78,112.69 L544.03,111.93 L540.26,115.98 L542.27,119.52 L533.73,119.27 L536.49,122.82 L535.74,124.34 L531.22,124.34 L527.95,122.06 L527.2,115.73 L521.92,113.7 L521.92,111.17 L532.98,113.45 L539.01,113.96 L541.52,110.16 L539.26,106.11 L523.18,99.78 L517.63,101.16 L515.73,102.79 L516.32,106.54 L518.68,106.95 L518.13,112.85 L525.41,129.95 L520.15,138.29 L519.79,140.17 L522.46,142.05 L520.05,143.64 L518.45,143.67 L518.75,151.02 L520.96,154.15 L520.99,157.19 L523.82,157.45 L528.15,159.1 L532.73,165.4 L532.78,167.06 L531.29,169.61 L534.71,169.42 L538.04,170.38 L542.54,176.75 L553.62,177.76 L553.14,185.34 L549.32,188.61 L550.11,189.89 L546.34,193.94 L545.34,197.74 L547.6,201.03 L554.89,203.56 L557.91,201.79 L577.26,209.13 L578.01,207.1 L573.99,203.3 L573.99,198.49 L571.48,197.73 L571.98,193.68 L576,188.87 L568.79,183.47 L569.29,175.96 L577,170.89 L586.05,171.4 L587.56,174.19 L596.86,174.7 L603.65,170.9 L600.13,167.1 L600.88,160.01 L618.47,151.4 L632,157.5 L636.52,153.45 L649.84,166.11 L659.89,165.1 L663.41,168.64 L672.96,169.65 L679.24,161.04 L687.28,164.59 L691.55,165.35 L695.82,161.55 L692.05,159.02 L695.32,153.96 L704.62,157 L706.63,161.05 L710.65,161.3 L713.16,159.53 L719.95,159.28 L720.7,161.05 L728.49,161.56 L733.77,155.99 L744.58,157.26 L747.85,155.99 L748.85,149.91 L745.58,142.57 L748.85,139.78 L759.15,139.78 L768.95,151.43 L781.51,158.52 L785.28,158.52 L785.78,155.48 L790.3,152.69 L790.8,169.15 L786.78,169.4 L786.78,173.45 L789.04,176.24 L788.62,179.86 L790.29,180.55 L791.3,178.02 L792.81,178.53 L793.81,179.54 L798.33,178.53 L802.85,165.36 L803.35,148.9 L797.57,135.73 L790.28,126.87 L786.76,127.38 L786.76,130.17 L778.22,126.88 L781.49,119.79 L784.25,101.05 L795.81,97.51 L801.34,93.97 L807.37,93.97 L805.86,96 L807.37,98.53 L812.65,92.96 L815.67,93.21 L815.17,89.92 L810.39,88.91 L813.66,77.01 L817.97,72.93 L817.97,72.93" />    </g>
    <g fill="#51abcb" fill-opacity="1" stroke="none" transform="matrix(1.01961,0,0,1.01961,-61.2157,-2.19608)" id="country-rw"><path vector-effect="none" fill-rule="nonzero" d="M537.82,339.9 L540.63,342.49 L540.51,345.26 L536.15,345.35 L536.15,342.29 L537.82,339.9 L537.82,339.9" />    </g>
    <g fill="#51abcb" fill-opacity="1" stroke="none" transform="matrix(1.01961,0,0,1.01961,-61.2157,-2.19608)" id="country-sa"><path vector-effect="none" fill-rule="nonzero" d="M584,253.24 L591.01,263.01 L593.27,264.81 L594.28,269.19 L605.07,270.04 L606.29,270.68 L605.08,276.08 L597.99,280.26 L587.62,283.4 L582.09,288.8 L575.52,284.97 L571.54,288.45 L566,279.4 L562.2,277.66 L560.82,275.57 L560.82,271.04 L546.99,254.32 L546.47,251.36 L550.45,251.36 L555.29,247.18 L555.46,245.09 L554.08,243.7 L556.85,241.44 L562.73,241.79 L572.76,250.15 L578.68,249.88 L579.06,251.34 L584,253.24 L584,253.24" />    </g>
    <g fill="#51abcb" fill-opacity="1" stroke="none" transform="matrix(1.01961,0,0,1.01961,-61.2157,-2.19608)" id="country-sd"><path vector-effect="none" fill-rule="nonzero" d="M552,270.61 L548.31,274.33 L522.51,274.1 L522.79,280.67 L520.33,280.6 L520.15,292.43 L516.42,295.64 L516.27,300.58 L518.96,305.89 L521.91,307.63 L521.865,308.045 L525.885,305.986 L528.951,308.436 L534.59,308.76 L537.848,306.031 L540.734,307.406 L543.984,302.658 L544.258,301.082 L546.734,300.612 L547.119,305.082 L549.596,309.242 L555.6,296.33 L555.6,288.48 L559.96,283.34 L552,270.61" />    </g>
    <g fill="#51abcb" fill-opacity="1" stroke="none" transform="matrix(1.01961,0,0,1.01961,-61.2157,-2.19608)" id="country-se"><path vector-effect="none" fill-rule="nonzero" d="M497.72,104.58 L499.68,106.39 L503.35,106.39 L505.37,110.27 L505.92,116.92 L500.97,120.43 L500.97,123.94 L497.48,128.75 L495.46,128.93 L492.71,133.55 L492.89,137.99 L497.66,141.5 L497.29,143.53 L495.46,146.3 L492.71,148.7 L492.89,156.65 L488.67,158.13 L487.2,161.27 L485.18,161.27 L484.08,155.73 L479.49,148.69 L483.26,142.38 L483.52,126.79 L486.12,125.36 L486.75,116.44 L494.16,105.83 L497.72,104.58 L497.72,104.58" />    </g>
    <g fill="#51abcb" fill-opacity="1" stroke="none" transform="matrix(1.01961,0,0,1.01961,-61.2157,-2.19608)" id="country-si"><path vector-effect="none" fill-rule="nonzero" d="M494.8,191.99 L492.26,193.51 L487.52,194.55 L488.47,197.29 L491.79,197.33 L494.85,194.77 L494.8,191.99 L494.8,191.99" />    </g>
    <g fill="#51abcb" fill-opacity="1" stroke="none" transform="matrix(1.01961,0,0,1.01961,-61.2157,-2.19608)" id="country-sk"><path vector-effect="none" fill-rule="nonzero" d="M495.84,187.13 L496.53,187.74 L496.62,188.78 L504.25,188.61 L509.89,186.18 L509.8,183.71 L508.72,184.19 L507.17,183.36 L506.22,183.32 L503.72,184.32 L500.32,183.5 L495.84,187.13 L495.84,187.13" />    </g>
    <g fill="#51abcb" fill-opacity="1" stroke="none" transform="matrix(1.01961,0,0,1.01961,-61.2157,-2.19608)" id="country-sl"><path vector-effect="none" fill-rule="nonzero" d="M413.93,313.13 L419.58,318.59 L423.61,313.7 L421.09,309.75 L417.62,310.1 L413.93,313.13 L413.93,313.13" />    </g>
    <g fill="#51abcb" fill-opacity="1" stroke="none" transform="matrix(1.01961,0,0,1.01961,-61.2157,-2.19608)" id="country-sn"><path vector-effect="none" fill-rule="nonzero" d="M410.12,290.32 L406.18,293.18 L405.28,294.78 L405,296.38 L406.45,297.42 L411.29,297.35 L414.4,296.51 L414.75,298.04 L414.47,300.06 L417.44,301.52 L418.06,302.22 L422,302.36 L422.14,300.62 L418.54,296.3 L414.53,290.87 L412.04,289.83 L410.12,290.32 M408.03,303.23 L408.72,301.37 L418.06,302.22 L417.44,301.52 L414.47,300.06 L406.79,300.22" />    </g>
    <g fill="#51abcb" fill-opacity="1" stroke="none" transform="matrix(1.01961,0,0,1.01961,-61.2157,-2.19608)" id="country-so"><path vector-effect="none" fill-rule="nonzero" d="M575.74,305.04 L579.82,307.82 L581.03,307.76 L591.16,304.28 L592.31,307.99 L591.5,311.12 L589.31,312.86 L583.84,312.51 L576.01,307.7 L575.74,305.04 L575.74,305.04" />    </g>
    <g fill="#51abcb" fill-opacity="1" stroke="none" transform="matrix(1.01961,0,0,1.01961,-61.2157,-2.19608)" id="country-sr"><path vector-effect="none" fill-rule="nonzero" d="M293.13,321.14 L295.17,323.01 L298.33,321.05 L301.21,321.14 L300.84,322.26 L299.63,324.78 L299.44,331.05 L293.69,333.39 L293.97,329.37 L290.26,325.91 L290.45,324.13 L293.13,321.14 L293.13,321.14" />    </g>
    <g fill="#51abcb" fill-opacity="1" stroke="none" transform="matrix(1.01961,0,0,1.01961,-61.2157,-2.19608)" id="country-ss"><path vector-effect="none" fill-rule="nonzero" d="M549.084,310.34 L546.141,305.396 L545.832,301.801 L545.125,301.936 L544.934,303.043 L541.076,308.678 L537.998,307.209 L534.928,309.781 L528.576,309.416 L525.766,307.17 L521.732,309.234 L521.58,310.609 L520.35,311.349 L532.67,324.029 L539.38,324.41 L540.36,325.9 L549.96,326.07 L550.04,323.92 L550.86,322.43 L554.06,322.02 L550.07,316.23 L547.13,316.23 L546.38,312.12 L548.74,311.08 L549.084,310.34 L549.084,310.34" />    </g>
    <g fill="#51abcb" fill-opacity="1" stroke="none" transform="matrix(1.01961,0,0,1.01961,-61.2157,-2.19608)" id="country-sv"><path vector-effect="none" fill-rule="nonzero" d="M201.65,296.27 L206.35,298.61 L206.28,294.9 L203.87,293.43 L201.65,296.27 L201.65,296.27" />    </g>
    <g fill="#51abcb" fill-opacity="1" stroke="none" transform="matrix(1.01961,0,0,1.01961,-61.2157,-2.19608)" id="country-sy"><path vector-effect="none" fill-rule="nonzero" d="M546.67,229.13 L546.32,231.67 L549.14,232.85 L549.02,239.89 L551.84,239.83 L554.66,237.7 L555.72,237.52 L562.12,232.43 L563.41,225.04 L550.62,226.34 L549.27,229.3 L546.67,229.13 L546.67,229.13" />    </g>
    <g fill="#51abcb" fill-opacity="1" stroke="none" transform="matrix(1.01961,0,0,1.01961,-61.2157,-2.19608)" id="country-sz"><path vector-effect="none" fill-rule="nonzero" d="M540.87,414 L538.36,414.42 L537.28,417.37 L539.2,419.12 L541.53,419.12 L543.5,416.29 L540.87,414 L540.87,414" />    </g>
    <g fill="#51abcb" fill-opacity="1" stroke="none" transform="matrix(1.01961,0,0,1.01961,-61.2157,-2.19608)" id="country-td"><path vector-effect="none" fill-rule="nonzero" d="M492.79,296 L492.92,293.05 L497.66,288.44 L498.93,277.12 L495.77,271.08 L497.98,269.95 L519.38,281.1 L519.25,292.04 L515.48,295.25 L515.48,300.89 L517.95,305.67 L513.59,305.67 L506.37,312.81 L506.18,314.97 L500.85,314.9 L500.78,315.88 L497.74,315.48 L495.66,311.55 L494.1,310.78 L494.3,309.58 L496.26,308.08 L496.26,301.06 L493.55,300.64 L490.28,298.21 L492.79,296 L492.79,296" />    </g>
    <g fill="#51abcb" fill-opacity="1" stroke="none" transform="matrix(1.01961,0,0,1.01961,-61.2157,-2.19608)" id="country-tg"><path vector-effect="none" fill-rule="nonzero" d="M455.22,321.25 L457.9,319.68 L457.84,309.33 L456.1,306.51 L454.98,307.45 L455.22,321.25 L455.22,321.25" />    </g>
    <g fill="#51abcb" fill-opacity="1" stroke="none" transform="matrix(1.01961,0,0,1.01961,-61.2157,-2.19608)" id="country-th"><path vector-effect="none" fill-rule="nonzero" d="M730.03,270.47 L733.27,274.64 L733.27,279.71 L734.39,280.27 L739.54,277.79 L740.55,278.13 L746.7,285.23 L746.48,290.08 L744.47,289.74 L742.68,288.61 L741.34,288.72 L738.99,292.66 L739.44,294.8 L741.34,295.81 L741.23,298.18 L739.89,298.86 L735.3,295.7 L735.3,292.88 L733.4,292.77 L732.62,294.01 L732.22,306.63 L735.19,312.05 L740.45,317.12 L740.23,318.59 L737.43,318.48 L734.86,314.65 L732.17,314.65 L728.81,311.94 L727.8,309.12 L729.25,306.75 L729.75,304.61 L731.33,301.81 L731.26,295.37 L727.4,289.79 L727.24,289.11 L728.49,287.85 L728.2,283.42 L723.06,276.91 L723.66,273.16 L730.03,270.47 L730.03,270.47" />    </g>
    <g fill="#51abcb" fill-opacity="1" stroke="none" transform="matrix(1.01961,0,0,1.01961,-61.2157,-2.19608)" id="country-tj"><path vector-effect="none" fill-rule="nonzero" d="M630.19,211.84 L634.3,206.74 L635.85,206.74 L636.39,207.88 L634.49,209.26 L634.49,210.4 L635.74,211.3 L641.75,211.66 L643.71,210.82 L644.6,211 L645.2,212.92 L648.77,213.28 L650.56,217.06 L650.02,218.2 L649.31,218.26 L648.6,216.82 L647.05,216.7 L644.37,217.06 L644.19,219.58 L641.51,219.4 L641.63,216.22 L639.67,214.3 L636.69,216.76 L636.75,218.38 L634.13,219.28 L632.58,219.28 L632.7,213.7 L630.19,211.84 L630.19,211.84" />    </g>
    <g fill="#51abcb" fill-opacity="1" stroke="none" transform="matrix(1.01961,0,0,1.01961,-61.2157,-2.19608)" id="country-tm"><path vector-effect="none" fill-rule="nonzero" d="M593.85,207.59 L593.23,210.22 L589.08,210.22 L589.08,213.78 L593.54,216.72 L592.16,220.75 L592.16,222.61 L594.01,222.92 L596.47,219.67 L602.01,218.43 L613.85,222.92 L614,226.17 L620.61,226.79 L627.99,219.04 L627.07,216.56 L622.15,215.48 L608.31,206.49 L607.69,203.24 L602.46,203.24 L600.15,207.58 L597.84,207.58 L593.85,207.59 L593.85,207.59" />    </g>
    <g fill="#51abcb" fill-opacity="1" stroke="none" transform="matrix(1.01961,0,0,1.01961,-61.2157,-2.19608)" id="country-tn"><path vector-effect="none" fill-rule="nonzero" d="M474.91,227.33 L480.44,225.1 L482.26,226.28 L482.33,227.72 L481.48,228.83 L481.61,230.8 L482.46,231.26 L482.46,234.8 L481.48,236.44 L481.61,237.49 L485.32,238.8 L482.33,243.45 L481.16,243.38 L480.96,247.12 L479.66,247.32 L478.55,246.34 L478.81,242.54 L475.17,239 L474.71,235.92 L476.47,234.54 L474.91,227.33 L474.91,227.33" />    </g>
    <g fill="#51abcb" fill-opacity="1" stroke="none" transform="matrix(1.01961,0,0,1.01961,-61.2157,-2.19608)" id="country-tr"><path vector-effect="none" fill-rule="nonzero" d="M558.7,209.19 L556.47,211.55 L548.27,211.31 L543.35,208.36 L538.55,208.24 L533.04,212.14 L527.88,212.38 L527.41,215.33 L521.55,215.33 L519.21,217.46 L519.21,218.64 L520.62,219.82 L520.62,221.12 L520.03,222.66 L520.62,223.96 L522.5,223.02 L524.38,225.03 L523.91,226.45 L523.21,227.4 L524.26,228.58 L529.42,229.64 L533.05,228.1 L533.05,225.86 L534.81,226.21 L539.03,228.69 L543.6,227.98 L545.59,226.09 L546.88,226.56 L546.88,228.69 L548.64,228.69 L550.16,225.74 L563.52,224.32 L569.35,223.61 L567.81,221.59 L567.78,218.86 L568.95,217.46 L564.69,214.04 L564.92,211.09 L562.58,211.09 L558.7,209.19 L558.7,209.19" />    </g>
    <g fill="#51abcb" fill-opacity="1" stroke="none" transform="matrix(1.01961,0,0,1.01961,-61.2157,-2.19608)" id="country-tw"><path vector-effect="none" fill-rule="nonzero" d="M787.46,248.31 L783.92,251.01 L783.73,256.21 L786.79,259.77 L787.55,259.1 L787.46,248.31 L787.46,248.31" />    </g>
    <g fill="#51abcb" fill-opacity="1" stroke="none" transform="matrix(1.01961,0,0,1.01961,-61.2157,-2.19608)" id="country-tz"><path vector-effect="none" fill-rule="nonzero" d="M550.57,371.42 L568.04,369.28 L564.11,361.68 L563.9,354.4 L565.17,350.92 L548.55,340.48 L543.34,341.34 L541.53,342.68 L541.37,345.73 L540.2,349.96 L538.98,351.41 L537.23,351.57 L540.58,363.18 L546.05,365.75 L549.82,365.86 L550.57,371.42 L550.57,371.42" />    </g>
    <g fill="#51abcb" fill-opacity="1" stroke="none" transform="matrix(1.01961,0,0,1.01961,-61.2157,-2.19608)" id="country-ua"><path vector-effect="none" fill-rule="nonzero" d="M515.57,173.15 L512.67,174.78 L513.39,177.86 L510.71,183.51 L510.73,186 L511.99,186.8 L520.07,187.2 L522.33,185.33 L524.75,186.14 L528.22,190.77 L525.68,195.33 L528.7,196.21 L532.65,191.66 L534.91,192.07 L537.01,193.53 L535.16,195.97 L537.66,199.87 L540.32,199.87 L541.69,197.27 L544.51,196.7 L544.59,194.59 L539.35,193.78 L539.51,191.51 L544.59,191.51 L550.07,187.12 L552.49,185.01 L552.89,178.35 L542.09,177.38 L537.66,171.13 L534.6,170.08 L530.89,170.24 L529.22,174.37 L521.62,174.47 L519.15,173.33 L515.57,173.15 L515.57,173.15" />    </g>
    <g fill="#51abcb" fill-opacity="1" stroke="none" transform="matrix(1.01961,0,0,1.01961,-61.2157,-2.19608)" id="country-ug"><path vector-effect="none" fill-rule="nonzero" d="M538.3,339.09 L541.33,341.93 L543.23,340.72 L548.37,339.88 L549.25,339.97 L549.58,338.02 L552.48,331.92 L550.04,326.84 L542.13,326.89 L542.08,328.98 L543.14,330 L542.98,332.09 L538.3,339.09 L538.3,339.09" />    </g>
    <g fill="#51abcb" fill-opacity="1" stroke="none" transform="matrix(1.01961,0,0,1.01961,-61.2157,-2.19608)" id="country-us"><path vector-effect="none" fill-rule="nonzero" d="M148.76,158.34 L147.76,162.36 L144.27,160.1 L142.53,160.1 L141.53,164.37 L129.32,191.73 L132.56,215.57 L136.55,217.58 L137.3,224.11 L145.52,224.11 L153.49,230.13 L169.18,231.64 L170.92,239.67 L173.41,241.43 L176.9,237.92 L179.64,239.17 L182.13,250.71 L186.36,253.47 L189.85,246.94 L200.56,239.16 L207.53,242.42 L213.51,242.92 L213.76,239.16 L226.21,239.41 L228.7,242.17 L229.2,248.44 L227.71,251.95 L229.45,257.97 L233.19,257.97 L236.93,252.2 L235.44,249.44 L233.95,243.42 L236.19,236.64 L246.4,227.86 L254.12,225.6 L253.12,218.32 L263.83,206.77 L274.54,205.01 L272.8,199 L283.26,192.98 L283.26,184.95 L282.26,184.45 L278.52,185.7 L278.02,190.62 L265.59,190.77 L255.85,197.24 L240.56,202.24 L238.12,199.25 L245.06,188.75 L241.63,185.48 L239.3,181.04 L234.47,177.16 L229.22,176.72 L219.3,169.95 L148.76,158.34 L148.76,158.34 M93.11,44.89 L84.72,46.88 L86.45,56.33 L95.58,58.82 L96.07,60.81 L82.5,65.04 L74.85,77.72 L77.56,91.15 L82,94.13 L85.46,90.9 L86.45,92.89 L82.25,97.86 L65.96,105.32 L55.59,107.81 L55.34,111.54 L79.28,104.58 L89.15,101.84 L98.28,90.65 L108.4,83.94 L103.22,92.64 L108.9,93.39 L118.53,89.16 L120.26,96.12 L126.92,97.61 L133.83,104.32 L134.32,109.29 L133.33,110.53 L134.56,115.25 L136.29,115.25 L136.54,107.29 L138.51,107.29 L139,126.93 L143.94,122.7 L140.48,102.31 L135.3,102.31 L129.62,95.1 L157.51,47.85 L129.87,26.22 L99.02,32.19 L97.79,41.64 L104.45,45.62 L101.98,52.09 L93.11,44.89 L93.11,44.89" />    </g>
    <g fill="#51abcb" fill-opacity="1" stroke="none" transform="matrix(1.01961,0,0,1.01961,-61.2157,-2.19608)" id="country-uy"><path vector-effect="none" fill-rule="nonzero" d="M300.36,431.93 L298.31,434.12 L299.16,445.9 L305.6,447.77 L313.79,439.56 L300.36,431.93 L300.36,431.93" />    </g>
    <g fill="#51abcb" fill-opacity="1" stroke="none" transform="matrix(1.01961,0,0,1.01961,-61.2157,-2.19608)" id="country-uz"><path vector-effect="none" fill-rule="nonzero" d="M628.92,219.06 L632,219.22 L632,213.95 L629.08,212.25 L634,206.05 L636,206.05 L638,208.38 L643.23,206.37 L636,203.89 L635.72,202.39 L634,202.81 L632.31,205.75 L625.02,205.51 L619.67,197.94 L610.27,198.87 L605.79,194.43 L599.59,193.38 L595.09,195.21 L597.7,203.89 L597.73,206.81 L599.63,206.85 L601.96,202.41 L608.16,202.49 L609.08,205.9 L622.37,214.72 L627.51,215.9 L628.92,219.06 L628.92,219.06" />    </g>
    <g fill="#51abcb" fill-opacity="1" stroke="none" transform="matrix(1.01961,0,0,1.01961,-61.2157,-2.19608)" id="country-ve"><path vector-effect="none" fill-rule="nonzero" d="M250.46,305.92 L250.9,308.51 L254.15,309.54 L254.89,304.77 L258.32,301.22 L261.75,305.24 L269.64,307.39 L276.32,305.99 L280.87,311.6 L284.3,313.75 L280.54,319.48 L281.8,323.82 L279.65,326.48 L277.42,328.35 L272.59,325.92 L271.48,327.04 L271.48,330.5 L275.01,332.18 L272.41,334.99 L269.81,337.8 L266.38,337.52 L262.93,333.73 L262.2,319.47 L250.42,315.45 L248.28,309.18 L250.46,305.92 L250.46,305.92" />    </g>
    <g fill="#51abcb" fill-opacity="1" stroke="none" transform="matrix(1.01961,0,0,1.01961,-61.2157,-2.19608)" id="country-vn"><path vector-effect="none" fill-rule="nonzero" d="M745.06,304.45 L746.25,306.32 L746.47,308.46 L749.6,308.8 L753.4,303.73 L756.98,302.72 L758.88,297.54 L757.99,289.2 L754.3,284.13 L750.41,281.02 L745.46,272.52 L749.01,266.58 L743.93,260.75 L739.86,260.57 L736.2,262.54 L737.29,267.25 L742.17,268.11 L743.48,271.74 L741.76,272.86 L741.87,273.76 L753.32,284.96 L753.77,288.25 L753.08,298.65 L745.06,304.45" />    </g>
    <g fill="#51abcb" fill-opacity="1" stroke="none" transform="matrix(1.01961,0,0,1.01961,-61.2157,-2.19608)" id="country-ye"><path vector-effect="none" fill-rule="nonzero" d="M571.99,289.23 L573.43,293.51 L573.43,297.69 L576.89,300.83 L601.27,290.9 L601.5,288.17 L597.59,281.15 L587.78,284.28 L582.15,289.82 L575.62,285.96 L571.99,289.23 L571.99,289.23" />    </g>
    <g fill="#51abcb" fill-opacity="1" stroke="none" transform="matrix(1.01961,0,0,1.01961,-61.2157,-2.19608)" id="country-za"><path vector-effect="none" fill-rule="nonzero" d="M534.16,403.63 L526.26,410.93 L524.38,415.44 L518.12,414.66 L512.91,419.29 L509.45,418.95 L509.73,412.55 L508.5,412.12 L507.64,425.21 L501.5,425.15 L499.65,422.97 L496.94,422.94 L499.41,430.03 L503.82,434.2 L500.67,437.87 L502.71,442.47 L507.43,444.27 L511.19,441.07 L521.96,441.13 L522.73,440.17 L527.51,439.33 L543.68,423.23 L543.62,418.16 L541.89,420.4 L539.3,420.4 L536.15,417.76 L537.75,413.78 L540.5,413.22 L540.25,405.04 L534.16,403.63 L534.16,403.63 M530.37,422.13 L531.88,422.07 L534.33,424.73 L534.26,427.81 L531.39,429.26 L531.21,430.28 L526.83,430.33 L525.46,427.03 L526.71,424.61 L530.37,422.13 L530.37,422.13" />    </g>
    <g fill="#51abcb" fill-opacity="1" stroke="none" transform="matrix(1.01961,0,0,1.01961,-61.2157,-2.19608)" id="country-zm"><path vector-effect="none" fill-rule="nonzero" d="M514.55,384.7 L517.72,389.1 L522.63,389.4 L524.37,390.36 L529.51,390.42 L533.94,384.21 L546.32,378.67 L547.4,373.79 L545.96,366.8 L539.5,363.12 L535.19,363.42 L533.04,368.18 L533.1,370.35 L538.18,372.82 L538.48,378.19 L534.11,378.43 L533.03,376.62 L520.89,371.44 L520.53,375.42 L514.79,375.6 L514.55,384.7 L514.55,384.7" />    </g>
    <g fill="#51abcb" fill-opacity="1" stroke="none" transform="matrix(1.01961,0,0,1.01961,-61.2157,-2.19608)" id="country-zw"><path vector-effect="none" fill-rule="nonzero" d="M524.66,392.3 L533.63,402.43 L540.51,404.18 L545.12,396.95 L544.76,387.37 L537.28,383.51 L534.47,384.78 L530.28,391.17 L524.48,391.11 L524.66,392.3 L524.66,392.3" />    </g>
</g>
</svg>